# xmcd
#
# Track frame offsets: 
#        150
#        10523
#        22172
#        31883
#        43732
#        54381
#        64927
#        76430
#        87875
#        99612
#        110531
#        119411
#        131396
#        143505
#        154266
#        166436
#        178070
#        189843
#        201022
#        212862
#
# Disc length: 2986 seconds
#
# Revision: 0
# Processed by: cddbd v1.5.2PL0 Copyright (c) Steve Scherf et al.
# Submitted via: ExactAudioCopy v1.3
#
DISCID=0e0ba814
DTITLE=Sam Cooke - Singles Collection 1951-1962
DYEAR=2017
DGENRE=Soul
TTITLE0=I belong to your heart
TTITLE1=Chain gang
TTITLE2=I fall in love every day
TTITLE3=Sad mood
TTITLE4=Love me
TTITLE5=Just for you
TTITLE6=That's it - I quit - I'm movin on
TTITLE7=What do you say
TTITLE8=Cupid
TTITLE9=Farewell, my darling
TTITLE10=Feel it
TTITLE11=It's all right
TTITLE12=Twistin' the night away
TTITLE13=One more time
TTITLE14=Bring it on home to me
TTITLE15=Having a party
TTITLE16=Nothing can change this love
TTITLE17=Somebody have mercy
TTITLE18=Send me some lovin'
TTITLE19=Baby, baby, baby
EXTD=
EXTT0=
EXTT1=
EXTT2=
EXTT3=
EXTT4=
EXTT5=
EXTT6=
EXTT7=
EXTT8=
EXTT9=
EXTT10=
EXTT11=
EXTT12=
EXTT13=
EXTT14=
EXTT15=
EXTT16=
EXTT17=
EXTT18=
EXTT19=
PLAYORDER=
